<svg t="1724249159729" class="icon" viewBox="0 0 1024 1024" version="1.1" xmlns="http://www.w3.org/2000/svg" p-id="8852" width="16" height="16"><path d="M512 512m-424 0a424 424 0 1 0 848 0 424 424 0 1 0-848 0Z" fill="#FFFFFF" p-id="8853"></path><path d="M512 168c189.986 0 344 154.014 344 344S701.986 856 512 856 168 701.986 168 512s154.014-344 344-344zM288 512c0 123.712 100.288 224 224 224 40.061 0 77.667-10.517 110.205-28.94L316.94 401.795C298.517 434.333 288 471.939 288 512z m224-224c-40.061 0-77.667 10.517-110.205 28.94L707.06 622.205C725.483 589.667 736 552.061 736 512c0-123.712-100.288-224-224-224z" fill="#EB5F5C" p-id="8854"></path></svg>